<svg aria-hidden="true" style="position: absolute; width: 0; height: 0; overflow: hidden;" version="1.1" xmlns="http://www.w3.org/2000/svg" xmlns:xlink="http://www.w3.org/1999/xlink">
<defs>
<symbol id="icon-walmart-logo-icon" viewBox="0 0 133 32">
<path d="M47.765 11.554v1.746h0.053c0.628-0.935 1.671-2.035 3.983-2.035 1.799 0 3.18 0.915 3.77 2.298h0.053c0.506-0.699 1.084-1.229 1.734-1.604 0.768-0.444 1.623-0.699 2.699-0.699 2.436 0 4.591 1.585 4.591 5.579v7.575h-3.713v-7.046c0-2.024-0.731-3.194-2.251-3.194-1.113 0-1.922 0.703-2.229 1.568-0.107 0.297-0.156 0.703-0.156 1.043v7.633h-3.713v-7.335c0-1.719-0.702-2.912-2.201-2.912-1.199 0-1.951 0.889-2.259 1.649-0.132 0.325-0.173 0.699-0.173 1.051v7.544h-3.717v-12.859h3.528zM83.814 11.554v2.426h0.102c0.681-1.855 2.299-2.715 3.721-2.715 0.357 0 0.555 0.026 0.841 0.081v3.368c-0.34-0.047-0.657-0.092-1.101-0.092-1.609 0-2.731 0.881-3.014 2.259-0.062 0.287-0.083 0.595-0.083 0.951v6.586h-3.81v-12.862h3.342zM93.653 7.294v4.049h3.22v3.276h-3.219v4.832c0 1.564 0.422 2.322 1.679 2.322 0.591 0 1.026-0.070 1.404-0.159l0.050 2.715c-0.506 0.178-1.582 0.371-2.674 0.371-1.286 0-2.359-0.421-3.010-1.074-0.748-0.745-1.093-1.966-1.093-3.705v-12.627h3.642zM41.65 24.414h-3.697v-17.12h3.697v17.12zM31.793 19.821c0 0.236-0.020 0.482-0.090 0.695-0.288 0.892-1.269 1.646-2.494 1.646-1.023 0-1.836-0.545-1.836-1.7 0-1.766 2.071-2.257 4.423-2.245v1.604h-0.004zM35.484 16.742c0-2.916-1.323-5.477-5.796-5.477-2.296 0-4.119 0.606-5.113 1.146l0.728 2.342c0.907-0.542 2.357-0.986 3.729-0.986 2.272-0.004 2.641 1.209 2.641 1.986v0.185c-4.948-0.007-8.075 1.604-8.075 4.887 0 2.005 1.591 3.883 4.358 3.883 1.704 0 3.125-0.638 3.98-1.662h0.083s0.567 2.221 3.68 1.371c-0.166-0.927-0.218-1.912-0.218-3.098v-4.577h0.004zM5.030 7.294c0.383 1.812 1.467 7.073 1.467 7.073 0.455 2.163 0.875 4.43 1.191 6.222h0.057c0.308-1.903 0.793-3.708 1.311-5.94l1.828-7.355h4.045l1.709 7.544c0.447 2.098 0.805 3.717 1.088 5.668h0.053c0.308-1.971 0.711-3.655 1.15-5.81l1.644-7.401h3.88l-4.809 17.12c-3.064 0.629-4.238-0.53-4.658-2.368-0.418-1.843-1.24-5.345-1.24-5.345-0.423-1.92-0.751-3.272-0.981-5.242h-0.058c-0.328 1.95-0.673 3.319-1.183 5.237l-2.016 7.721c-3.129 0.588-4.215-0.282-4.814-2.643-0.517-2.018-3.745-14.476-3.745-14.476l4.082-0.004zM74.311 19.821c0 0.236-0.021 0.482-0.091 0.695-0.287 0.892-1.268 1.646-2.492 1.646-1.023 0-1.837-0.545-1.837-1.7 0-1.766 2.071-2.257 4.424-2.245v1.604h-0.004zM78.003 16.742c0-2.916-1.323-5.477-5.796-5.477-2.296 0-4.119 0.606-5.113 1.146l0.727 2.342c0.908-0.542 2.359-0.986 3.73-0.986 2.267-0.004 2.641 1.209 2.641 1.986v0.185c-4.945-0.007-8.071 1.604-8.071 4.887 0 2.005 1.594 3.883 4.358 3.883 1.701 0 3.125-0.638 3.976-1.662h0.087s0.567 2.221 3.68 1.371c-0.165-0.927-0.218-1.912-0.218-3.098v-4.577zM111.858 18.517c0.365 0.626 0.34 1.323-0.049 1.641l-6.722 4.644c-0.699 0.398-1.748-0.085-2.342-1.097-0.597-1.017-0.492-2.15 0.209-2.549l7.443-3.413c0.467-0.178 1.097 0.151 1.461 0.775zM120.705 18.517c0.369-0.625 0.994-0.948 1.461-0.779l7.447 3.413c0.7 0.398 0.802 1.532 0.209 2.548-0.597 1.013-1.65 1.493-2.345 1.097l-6.722-4.642c-0.385-0.315-0.414-1.017-0.049-1.638zM116.28 21.035c0.732 0 1.335 0.371 1.416 0.859l0.724 8.059c0 0.798-0.946 1.452-2.137 1.452-1.188 0-2.137-0.654-2.137-1.453l0.721-8.059c0.083-0.487 0.684-0.858 1.413-0.858zM120.754 11.846l6.722-4.646c0.696-0.401 1.748 0.079 2.345 1.096 0.594 1.017 0.492 2.15-0.209 2.548l-7.447 3.418c-0.467 0.169-1.097-0.154-1.461-0.779-0.365-0.626-0.337-1.324 0.049-1.638zM110.395 14.263l-7.441-3.418c-0.696-0.399-0.802-1.532-0.209-2.549 0.593-1.017 1.645-1.497 2.342-1.097l6.722 4.647c0.389 0.311 0.414 1.012 0.049 1.638-0.364 0.625-0.996 0.948-1.461 0.779zM114.867 10.107l-0.721-8.059c0-0.799 0.946-1.452 2.137-1.452s2.137 0.653 2.137 1.452l-0.724 8.059c-0.083 0.485-0.684 0.859-1.416 0.859-0.729 0-1.331-0.375-1.413-0.859zM131.64 24.77v-0.201h0.184c0.062 0 0.103 0.040 0.103 0.101 0 0.001 0 0.002 0 0.003 0 0.054-0.044 0.098-0.098 0.098-0.002 0-0.003-0-0.005-0h-0.184zM131.488 25.138c0 0.020 0.017 0.040 0.041 0.040h0.077c0.021 0 0.041-0.020 0.041-0.040v-0.23h0.127l0.102 0.242c0.008 0.017 0.021 0.028 0.037 0.028h0.095c0 0 0 0 0 0 0.022 0 0.040-0.018 0.040-0.040 0-0.006-0.001-0.012-0.004-0.017l0 0c-0.037-0.071-0.073-0.149-0.11-0.225 0.091-0.029 0.156-0.113 0.156-0.212 0-0.004-0-0.009-0-0.013l0 0.001c0-0.154-0.127-0.243-0.254-0.243h-0.307c-0.021 0-0.041 0.020-0.041 0.040v0.67zM131.156 24.804c0-0.327 0.27-0.593 0.602-0.593s0.602 0.261 0.602 0.593c0 0.326-0.267 0.593-0.602 0.593-0.002 0-0.004 0-0.006 0-0.328 0-0.594-0.265-0.596-0.592v-0zM131.014 24.804c0 0.403 0.331 0.734 0.744 0.734 0.41 0 0.745-0.332 0.745-0.735s-0.335-0.734-0.745-0.734c-0.002 0-0.004-0-0.006-0-0.407 0-0.736 0.329-0.738 0.735v0z"></path>
</symbol>
<symbol id="icon-twitter-icon" viewBox="0 0 34 32">
<path d="M33.031 6.001c-1.177 0.517-2.43 0.857-3.734 1.024 1.343-0.806 2.353-2.053 2.838-3.536l0.013-0.046c-1.183 0.714-2.559 1.258-4.025 1.554l-0.083 0.014c-1.185-1.266-2.866-2.055-4.731-2.055-3.575 0-6.474 2.898-6.474 6.474 0 0.004 0 0.008 0 0.012v-0.001c0 0.514 0.042 1.009 0.148 1.477-5.399-0.274-10.148-2.843-13.325-6.743l-0.026-0.033c-0.555 0.936-0.883 2.064-0.883 3.268 0 2.236 1.131 4.208 2.852 5.374l0.023 0.015c-1.079-0.028-2.084-0.32-2.962-0.812l0.032 0.017v0.069c0 3.151 2.247 5.765 5.194 6.366-0.495 0.136-1.064 0.214-1.651 0.214-0.017 0-0.033-0-0.050-0h0.003c-0.418 0-0.837-0.025-1.228-0.111 0.863 2.591 3.234 4.439 6.047 4.512l0.008 0c-2.188 1.725-4.984 2.767-8.023 2.767-0.005 0-0.010 0-0.014 0h0.001c-0.532 0-1.041-0.025-1.551-0.089 2.79 1.821 6.206 2.905 9.875 2.905 0.023 0 0.046-0 0.068-0h-0.004c11.921 0 18.437-9.871 18.437-18.432 0-0.288-0.010-0.564-0.025-0.837 1.287-0.913 2.368-2.053 3.249-3.365z"></path>
</symbol>
<symbol id="icon-star-rating-icon" viewBox="0 0 32 32">
<path d="M25.469 19.712c-0.329 0.32-0.533 0.767-0.533 1.262 0 0.103 0.009 0.203 0.026 0.301l-0.002-0.010 1.421 7.872c0.017 0.092 0.027 0.197 0.027 0.305 0 0.588-0.293 1.107-0.742 1.419l-0.006 0.004c-0.287 0.211-0.647 0.338-1.038 0.338-0.306 0-0.593-0.078-0.844-0.215l0.009 0.005-7.085-3.696c-0.232-0.125-0.506-0.201-0.798-0.208l-0.002-0h-0.434c-0.162 0.024-0.307 0.075-0.439 0.147l0.007-0.003-7.088 3.712c-0.352 0.176-0.747 0.24-1.136 0.176-0.829-0.162-1.447-0.883-1.447-1.748 0-0.1 0.008-0.199 0.024-0.294l-0.001 0.010 1.424-7.872c0.015-0.087 0.024-0.188 0.024-0.291 0-0.5-0.205-0.952-0.535-1.277l-0-0-5.774-5.6c-0.325-0.315-0.527-0.755-0.527-1.243 0-0.203 0.035-0.397 0.099-0.578l-0.004 0.012c0.216-0.634 0.763-1.096 1.424-1.2l7.952-1.152c0.605-0.064 1.136-0.432 1.408-0.976l3.504-7.184c0.083-0.16 0.19-0.307 0.32-0.432l0.144-0.112c0.073-0.081 0.158-0.15 0.251-0.205l0.005-0.003 0.176-0.064 0.272-0.112h0.672c0.603 0.064 1.133 0.422 1.408 0.96l3.552 7.152c0.256 0.523 0.752 0.886 1.328 0.976l7.952 1.152c0.672 0.096 1.232 0.56 1.456 1.2 0.208 0.642 0.027 1.346-0.464 1.808l-5.984 5.664z"></path>
</symbol>
<symbol id="icon-microsoft-logo-icon" viewBox="0 0 146 32">
<path d="M51.749 18.342l-0.862 2.436h-0.071c-0.256-0.94-0.542-1.733-0.882-2.498l0.044 0.11-4.621-11.583h-4.524v18.462h2.993v-11.392c0-0.717 0-1.529-0.024-2.532-0.024-0.501-0.072-0.884-0.096-1.171h0.071c0.143 0.717 0.312 1.242 0.431 1.576l5.554 13.47h2.106l5.506-13.588c0.12-0.311 0.239-0.932 0.359-1.458h0.071c-0.071 1.362-0.119 2.58-0.142 3.32v11.703h3.183v-18.437h-4.357l-4.741 11.583zM63.861 11.966h3.113v13.23h-3.112v-13.23zM65.442 6.376c-0.526 0-0.958 0.192-1.316 0.526-0.339 0.311-0.552 0.756-0.552 1.25 0 0.014 0 0.028 0.001 0.041l-0-0.002c0 0.501 0.191 0.932 0.55 1.266s0.791 0.501 1.317 0.501c0.526 0 0.981-0.191 1.317-0.501 0.359-0.334 0.551-0.764 0.551-1.266s-0.192-0.932-0.551-1.289c-0.312-0.334-0.766-0.526-1.316-0.526zM78.010 11.846c-0.574-0.119-1.173-0.191-1.747-0.191-1.413 0-2.706 0.311-3.782 0.932-1.079 0.621-1.94 1.48-2.49 2.555-0.575 1.099-0.862 2.364-0.862 3.821 0 1.266 0.287 2.388 0.838 3.415 0.55 1.004 1.316 1.816 2.347 2.364 0.98 0.55 2.13 0.837 3.423 0.837 1.484 0 2.752-0.311 3.757-0.884l0.024-0.024v-2.866l-0.119 0.095c-0.432 0.326-0.932 0.593-1.471 0.777l-0.038 0.011c-0.55 0.192-1.052 0.287-1.484 0.287-1.244 0-2.226-0.358-2.92-1.146-0.718-0.764-1.079-1.815-1.079-3.129 0-1.361 0.36-2.436 1.102-3.224s1.723-1.195 2.92-1.195c1.006 0 2.035 0.334 2.969 1.004l0.119 0.095v-3.033l-0.024-0.024c-0.407-0.167-0.86-0.358-1.484-0.478zM88.281 11.751c-0.767 0-1.485 0.237-2.107 0.74-0.526 0.43-0.885 1.051-1.197 1.791h-0.024v-2.316h-3.112v13.23h3.112v-6.758c0-1.147 0.239-2.103 0.766-2.795 0.527-0.717 1.197-1.075 2.011-1.075 0.287 0 0.575 0.071 0.934 0.119 0.334 0.097 0.574 0.192 0.742 0.312l0.119 0.095v-3.105l-0.071-0.024c-0.215-0.142-0.646-0.213-1.173-0.213zM96.755 11.679c-2.178 0-3.927 0.645-5.147 1.911-1.244 1.266-1.843 3.009-1.843 5.207 0 2.054 0.622 3.725 1.819 4.943 1.197 1.195 2.824 1.816 4.859 1.816 2.131 0 3.831-0.646 5.051-1.935 1.244-1.289 1.844-3.009 1.844-5.134 0-2.101-0.575-3.774-1.748-4.992-1.126-1.217-2.777-1.815-4.836-1.815zM99.244 21.852c-0.574 0.741-1.484 1.099-2.609 1.099-1.126 0-2.035-0.358-2.681-1.146-0.647-0.741-0.958-1.816-0.958-3.176 0-1.41 0.335-2.484 0.958-3.247 0.646-0.766 1.531-1.147 2.657-1.147 1.101 0 1.963 0.358 2.585 1.099s0.958 1.816 0.958 3.224c-0.047 1.434-0.311 2.556-0.909 3.296zM110.28 17.458c-0.981-0.405-1.604-0.716-1.892-0.979-0.239-0.238-0.359-0.572-0.359-1.003 0-0.358 0.145-0.717 0.504-0.955 0.359-0.239 0.766-0.358 1.364-0.358 0.526 0 1.077 0.095 1.604 0.238 0.527 0.143 1.006 0.358 1.389 0.645l0.119 0.095v-2.913l-0.071-0.024c-0.395-0.157-0.868-0.297-1.356-0.396l-0.056-0.009c-0.575-0.096-1.102-0.143-1.532-0.143-1.484 0-2.706 0.358-3.662 1.146-0.959 0.741-1.413 1.743-1.413 2.913 0 0.621 0.095 1.171 0.311 1.624 0.216 0.454 0.527 0.884 0.958 1.243 0.431 0.334 1.054 0.716 1.915 1.074 0.718 0.311 1.268 0.55 1.604 0.741s0.551 0.407 0.718 0.574c0.12 0.19 0.192 0.429 0.192 0.74 0 0.884-0.671 1.314-2.035 1.314-0.526 0-1.077-0.096-1.723-0.311-0.667-0.225-1.246-0.524-1.768-0.898l0.020 0.014-0.119-0.095v3.033l0.071 0.024c0.455 0.215 1.005 0.358 1.676 0.525 0.67 0.119 1.268 0.215 1.796 0.215 1.604 0 2.92-0.358 3.854-1.146 0.958-0.764 1.46-1.742 1.46-3.009 0-0.883-0.239-1.671-0.767-2.268-0.798-0.676-1.725-1.232-2.734-1.625l-0.066-0.023zM122.059 11.679c-2.178 0-3.927 0.645-5.147 1.911s-1.843 3.009-1.843 5.207c0 2.054 0.622 3.725 1.819 4.943 1.197 1.195 2.824 1.816 4.859 1.816 2.131 0 3.831-0.646 5.051-1.935 1.246-1.289 1.844-3.009 1.844-5.134 0-2.101-0.575-3.774-1.748-4.992-1.125-1.217-2.777-1.815-4.836-1.815zM124.524 21.852c-0.574 0.741-1.484 1.099-2.609 1.099-1.15 0-2.035-0.358-2.682-1.146-0.646-0.741-0.956-1.816-0.956-3.176 0-1.41 0.334-2.484 0.956-3.247 0.647-0.766 1.532-1.147 2.658-1.147 1.076 0 1.963 0.358 2.585 1.099s0.958 1.816 0.958 3.224c0 1.434-0.312 2.556-0.91 3.296zM145.28 14.521v-2.555h-3.136v-3.918l-0.096 0.024-3.040 0.908v2.985h-4.692v-1.671c0-0.766 0.191-1.363 0.526-1.745s0.838-0.574 1.46-0.574c0.431 0 0.885 0.096 1.389 0.311l0.12 0.071v-2.695l-0.072-0.024c-0.431-0.143-1.005-0.239-1.747-0.239-0.005-0-0.011-0-0.017-0-0.9 0-1.751 0.212-2.506 0.588l0.033-0.015c-0.725 0.392-1.305 0.971-1.689 1.673l-0.011 0.022c-0.408 0.717-0.622 1.529-0.622 2.46v1.839h-2.178v2.532h2.178v10.699h3.136v-10.675h4.692v6.807c0 2.793 1.317 4.203 3.949 4.203 0.431 0 0.887-0.071 1.317-0.142 0.455-0.096 0.791-0.216 0.981-0.311l0.025-0.024v-2.556l-0.12 0.095c-0.192 0.121-0.359 0.216-0.647 0.288-0.239 0.071-0.455 0.095-0.622 0.095-0.622 0-1.054-0.142-1.364-0.501-0.288-0.334-0.431-0.883-0.431-1.695v-6.258h3.185zM0.711 0.596h14.675v14.641h-14.675v-14.641zM16.917 0.596h14.675v14.641h-14.675v-14.641zM0.711 16.764h14.675v14.641h-14.675v-14.641zM16.917 16.764h14.675v14.641h-14.675v-14.641z"></path>
</symbol>
<symbol id="icon-instagram-icon" viewBox="0 0 32 32">
<path d="M31.97 9.29c-0.074-1.679-0.345-2.831-0.736-3.833-0.418-1.098-1.040-2.033-1.825-2.802l-0.001-0.001c-0.77-0.782-1.702-1.401-2.743-1.804l-0.053-0.018c-1.007-0.384-2.154-0.66-3.833-0.734-1.691-0.079-2.23-0.098-6.518-0.098-4.29 0-4.827 0.020-6.513 0.094-1.679 0.074-2.833 0.345-3.833 0.734-1.098 0.418-2.033 1.040-2.802 1.825l-0.001 0.001c-0.782 0.77-1.401 1.702-1.804 2.743l-0.018 0.053c-0.389 1.009-0.66 2.156-0.734 3.835-0.081 1.691-0.098 2.228-0.098 6.518s0.017 4.825 0.091 6.513c0.074 1.679 0.345 2.831 0.736 3.833 0.401 1.061 1.024 2.011 1.826 2.801 0.79 0.802 1.748 1.428 2.796 1.822 1.007 0.389 2.154 0.662 3.833 0.736 1.686 0.074 2.223 0.091 6.513 0.091s4.827-0.017 6.513-0.091c1.679-0.074 2.831-0.345 3.833-0.736 2.13-0.839 3.784-2.493 4.604-4.568l0.019-0.055c0.389-1.007 0.662-2.154 0.736-3.833 0.074-1.686 0.091-2.223 0.091-6.513s-0.005-4.827-0.079-6.513zM29.125 22.191c-0.069 1.543-0.327 2.378-0.542 2.934-0.546 1.382-1.62 2.455-2.968 2.986l-0.036 0.012c-0.554 0.217-1.393 0.475-2.929 0.544-1.669 0.074-2.169 0.094-6.385 0.094s-4.721-0.020-6.383-0.094c-1.543-0.069-2.375-0.327-2.932-0.542-0.712-0.267-1.318-0.669-1.813-1.18l-0.001-0.001c-0.511-0.497-0.913-1.103-1.17-1.78l-0.011-0.034c-0.214-0.556-0.473-1.396-0.542-2.932-0.074-1.666-0.094-2.166-0.094-6.383s0.020-4.724 0.094-6.383c0.069-1.543 0.327-2.378 0.542-2.932 0.254-0.687 0.655-1.31 1.186-1.817 0.512-0.524 1.13-0.926 1.814-1.179 0.556-0.214 1.396-0.475 2.934-0.542 1.666-0.074 2.166-0.094 6.383-0.094 4.222 0 4.721 0.020 6.383 0.094 1.543 0.066 2.375 0.327 2.929 0.542 0.689 0.254 1.31 0.655 1.817 1.182 0.524 0.512 0.926 1.127 1.182 1.814 0.214 0.554 0.473 1.393 0.542 2.929 0.074 1.669 0.091 2.169 0.091 6.385s-0.017 4.709-0.091 6.375z"></path>
<path d="M16.258 7.685c-0.041-0.001-0.090-0.001-0.139-0.001-4.485 0-8.121 3.636-8.121 8.121s3.636 8.121 8.121 8.121c0.051 0 0.101-0 0.151-0.001l-0.008 0c4.423-0.081 7.977-3.685 7.977-8.119 0-4.436-3.557-8.041-7.974-8.119l-0.007-0zM16.258 21.068c-2.909 0-5.268-2.358-5.268-5.268s2.358-5.268 5.268-5.268v0c2.909 0 5.268 2.358 5.268 5.268s-2.358 5.268-5.268 5.268v0zM26.592 7.365c0 1.047-0.849 1.895-1.895 1.895s-1.895-0.849-1.895-1.895v0c0-1.047 0.849-1.895 1.895-1.895s1.895 0.849 1.895 1.895v0z"></path>
</symbol>
<symbol id="icon-hubspot-logo-icon" viewBox="0 0 109 32">
<path d="M11.9 5.729v8.663h-7.896v-8.663h-3.748v20.681h3.748v-8.383h7.896v8.383h3.748v-20.681h-3.748zM27.644 19.725c0 0 0 0 0 0 0 0.861-0.347 1.641-0.909 2.208l0-0c-0.56 0.564-1.335 0.913-2.192 0.913s-1.632-0.349-2.192-0.913l-0-0c-0.562-0.567-0.909-1.347-0.909-2.208 0-0 0-0.001 0-0.001v0-8.856h-3.556v8.858c0 1.778 0.7 3.482 1.948 4.739 1.2 1.212 2.864 1.962 4.702 1.964h0c1.763 0 3.455-0.707 4.701-1.964 1.204-1.215 1.948-2.888 1.948-4.735 0-0.001 0-0.003 0-0.004v0-8.858h-3.543v8.858zM53.988 11.78c0-1.816 1.193-2.392 2.499-2.392 1.052 0 2.442 0.806 3.351 1.787l2.33-2.765c-1.162-1.585-3.52-2.68-5.452-2.68-3.857 0-6.646 2.276-6.646 6.051 0 7.002 8.492 4.78 8.492 8.698 0 1.21-1.165 2.277-2.497 2.277-2.103 0-2.784-1.037-3.75-2.132l-2.584 2.708c1.652 2.044 3.692 3.084 6.135 3.084 3.663 0 6.611-2.304 6.611-5.906 0-7.773-8.493-5.358-8.493-8.73zM106.525 23.104c-2.102 0-2.698-0.915-2.698-2.318v-6.209h3.265v-3.146h-3.265v-4.151l-3.604 1.629v12.649c0 3.235 2.214 4.865 5.252 4.865 0.476 0.009 0.952-0.029 1.421-0.115l0.881-3.263c-0.397 0.028-0.852 0.056-1.251 0.056zM41.178 10.97c-1.76 0-2.989 0.516-4.178 1.69v-6.804h-3.561v12.617c0 4.723 3.389 7.958 7.196 7.958 4.224 0 7.94-3.292 7.94-7.727 0-4.378-3.42-7.729-7.396-7.729v-0.001zM41.156 22.817c-0.837-0-1.614-0.257-2.258-0.695l0.014 0.009c-0.66-0.449-1.173-1.071-1.479-1.801l-0.010-0.027c-0.194-0.46-0.307-0.995-0.307-1.556 0-1.123 0.451-2.14 1.183-2.881l-0 0c0.728-0.737 1.738-1.194 2.855-1.194 0.559 0 1.091 0.114 1.574 0.321l-0.026-0.010c0.739 0.307 1.37 0.831 1.814 1.5 0.426 0.636 0.681 1.419 0.681 2.261 0 1.123-0.452 2.14-1.184 2.88l0-0c-0.729 0.736-1.74 1.192-2.857 1.193h-0zM79.846 18.511c0-4.442-3.709-7.727-7.941-7.727-3.807 0-7.195 3.236-7.195 7.959v12.623h3.561v-6.816c1.187 1.174 2.417 1.69 4.177 1.69 3.976 0 7.396-3.348 7.396-7.729h0.001zM76.474 18.467c0 0.806-0.237 1.594-0.681 2.263s-1.075 1.19-1.814 1.499c-0.457 0.197-0.989 0.311-1.548 0.311-1.117 0-2.127-0.457-2.855-1.194l-0-0c-0.731-0.74-1.182-1.758-1.182-2.881 0-0.561 0.113-1.096 0.317-1.584l-0.010 0.027c0.316-0.756 0.829-1.378 1.475-1.817l0.014-0.009c0.63-0.429 1.407-0.685 2.244-0.685 1.117 0 2.128 0.456 2.856 1.191l0 0c0.758 0.763 1.184 1.8 1.184 2.88z"></path>
<path d="M91.35 10.611v-3.607c0.474-0.223 0.873-0.576 1.155-1.019s0.431-0.957 0.435-1.485v-0.082c0-0.737-0.292-1.443-0.808-1.964-0.497-0.502-1.186-0.812-1.948-0.813h-0.083c-0.73 0-1.431 0.292-1.948 0.813-0.516 0.521-0.806 1.226-0.806 1.964v0.083c0.003 0.525 0.154 1.041 0.435 1.484s0.681 0.796 1.153 1.019v3.604c-1.426 0.226-2.686 0.81-3.723 1.657l0.014-0.011-9.811-7.702c0.066-0.232 0.106-0.5 0.11-0.776l0-0.002c0.001-0.62-0.179-1.225-0.52-1.74-0.34-0.509-0.814-0.906-1.371-1.144l-0.020-0.008c-0.353-0.152-0.763-0.241-1.194-0.241-0.857 0-1.632 0.35-2.19 0.914l-0 0c-0.564 0.569-0.913 1.352-0.913 2.217 0 0.43 0.086 0.839 0.242 1.213l-0.008-0.021c0.236 0.571 0.632 1.060 1.143 1.404 0.509 0.346 1.11 0.529 1.723 0.53 0.538-0.003 1.064-0.147 1.528-0.419l9.663 7.575c-0.816 1.226-1.302 2.733-1.302 4.354 0 1.695 0.532 3.266 1.438 4.555l-0.017-0.025-2.939 2.962c-0.219-0.073-0.471-0.117-0.733-0.12l-0.002-0c-0.528 0.001-1.018 0.163-1.423 0.44l0.009-0.006c-0.42 0.282-0.746 0.684-0.938 1.152-0.122 0.29-0.193 0.628-0.193 0.982 0 0.709 0.285 1.351 0.747 1.818l-0-0c0.461 0.464 1.099 0.751 1.805 0.751 0.351 0 0.685-0.071 0.989-0.2l-0.017 0.006c0.465-0.195 0.863-0.525 1.143-0.946 0.282-0.422 0.43-0.919 0.43-1.427-0.003-0.265-0.047-0.519-0.124-0.758l0.005 0.018 2.908-2.93c1.304 1.023 2.969 1.64 4.778 1.64 0.706 0 1.39-0.094 2.040-0.27l-0.055 0.013c1.214-0.327 2.266-0.901 3.145-1.668l-0.009 0.008c0.89-0.778 1.599-1.741 2.069-2.83l0.020-0.051c0.398-0.915 0.63-1.981 0.63-3.101 0-1.411-0.367-2.735-1.011-3.884l0.021 0.040c-0.597-1.067-1.397-1.952-2.355-2.629l-0.025-0.017c-0.93-0.658-2.043-1.123-3.247-1.313l-0.044-0.006zM90.145 22.467c-0.834-0.001-1.607-0.257-2.247-0.694l0.014 0.009c-0.656-0.447-1.166-1.066-1.47-1.792l-0.010-0.027c-0.193-0.457-0.305-0.989-0.305-1.547 0-1.118 0.45-2.132 1.178-2.869l-0 0c0.724-0.733 1.73-1.187 2.842-1.187 0.556 0 1.086 0.114 1.567 0.319l-0.026-0.010c0.735 0.307 1.362 0.826 1.805 1.491 0.425 0.633 0.678 1.413 0.678 2.252 0 1.117-0.45 2.13-1.178 2.866l0-0c-0.726 0.732-1.732 1.186-2.844 1.187h-0z"></path>
</symbol>
<symbol id="icon-google-logo-icon" viewBox="0 0 94 32">
<path d="M39.885 16.397c0 4.287-3.404 7.446-7.582 7.446s-7.582-3.159-7.582-7.447c0-4.318 3.404-7.447 7.581-7.447 4.179 0 7.583 3.129 7.583 7.448zM36.566 16.397c0-2.68-1.973-4.513-4.263-4.513s-4.263 1.833-4.263 4.513c0 2.652 1.973 4.512 4.263 4.512s4.263-1.864 4.263-4.513zM56.243 16.397c0 4.287-3.404 7.446-7.583 7.446-4.178 0-7.581-3.159-7.581-7.447 0-4.314 3.403-7.447 7.581-7.447 4.179 0 7.583 3.129 7.583 7.448zM52.924 16.397c0-2.68-1.973-4.513-4.264-4.513-2.29 0-4.263 1.833-4.263 4.513 0 2.652 1.973 4.512 4.263 4.512 2.291 0 4.264-1.864 4.264-4.513zM71.918 9.399v13.37c0 5.5-3.293 7.746-7.183 7.746-3.663 0-5.868-2.414-6.7-4.39l2.89-1.185c0.514 1.213 1.775 2.643 3.807 2.643 2.49 0 4.034-1.514 4.034-4.365v-1.070h-0.116c-0.743 0.903-2.174 1.692-3.98 1.692-3.779 0-7.242-3.244-7.242-7.416 0-4.204 3.463-7.475 7.242-7.475 1.803 0 3.233 0.789 3.98 1.666h0.116v-1.214h3.153v-0.003zM69.001 16.424c0-2.623-1.775-4.54-4.034-4.54-2.291 0-4.209 1.917-4.209 4.54 0 2.595 1.918 4.486 4.209 4.486 2.259 0 4.034-1.89 4.034-4.486zM77.114 1.562v21.825h-3.238v-21.825h3.238zM89.73 18.847l2.577 1.693c-0.832 1.213-2.836 3.3-6.297 3.3-4.295 0-7.501-3.27-7.501-7.447 0-4.428 3.234-7.447 7.129-7.447 3.923 0 5.841 3.075 6.467 4.738l0.344 0.846-10.103 4.122c0.772 1.494 1.975 2.257 3.663 2.257 1.689 0 2.862-0.82 3.721-2.061zM81.801 16.168l6.753-2.763c-0.371-0.93-1.49-1.578-2.804-1.578-1.687 0-4.035 1.468-3.95 4.341zM12.467 14.46v-3.16h10.806c0.106 0.552 0.16 1.203 0.16 1.908 0 2.37-0.658 5.301-2.777 7.39-2.061 2.115-4.695 3.244-8.185 3.244-6.467 0-11.906-5.192-11.906-11.564 0-6.374 5.439-11.564 11.906-11.564 3.578 0 6.127 1.384 8.043 3.187l-2.262 2.229c-1.374-1.269-3.235-2.257-5.784-2.257-0.018-0-0.040-0-0.062-0-4.614 0-8.355 3.741-8.355 8.355 0 0.018 0 0.035 0 0.053v-0.003c-0 0.014-0 0.032-0 0.049 0 4.614 3.741 8.355 8.355 8.355 0.022 0 0.044-0 0.065-0l-0.003 0c3.064 0 4.809-1.213 5.926-2.314 0.907-0.893 1.504-2.168 1.739-3.911l-7.665 0.003z"></path>
</symbol>
<symbol id="icon-burger-icon" viewBox="0 0 32 32">
<path d="M21.333 24v2.667h-14.667v-2.667h14.667zM28 14.667v2.667h-24v-2.667h24zM25.333 5.333v2.667h-14.667v-2.667h14.667z"></path>
</symbol>
<symbol id="icon-fedex-logo-icon" viewBox="0 0 102 32">
<path d="M76.147 30.438l8.541-9.457-8.54-9.457h9.011l4.229 4.593 4.072-4.593h8.696l-8.499 9.418 8.616 9.495h-9.047l-4.191-4.631-4.152 4.631h-8.735z"></path>
<path d="M76.147 7.284h-9.67v4.239h9.672v6.39h-9.672v5.866h9.672v6.659h-16.782v-29.795h16.781v6.641zM52.288 0.644v12.193h-0.077c-1.568-1.775-3.525-2.392-5.798-2.392-4.653 0-8.159 3.118-9.389 7.241-1.404-4.543-5.023-7.325-10.39-7.325-4.358 0-7.799 1.928-9.595 5.069v-3.904h-9.009v-4.239h9.83v-6.642h-17.861v29.795h8.031v-12.525h8.004c-0.233 0.872-0.366 1.873-0.366 2.906 0 0.014 0 0.027 0 0.041v-0.002c0 6.216 4.818 10.577 10.966 10.577 5.171 0 8.577-2.391 10.381-6.753h-6.884c-0.931 1.311-1.637 1.7-3.498 1.7-2.158 0-4.019-1.856-4.019-4.055h14.013c0.608 4.937 4.509 9.194 9.865 9.194 0.008 0 0.017 0 0.026 0 2.356 0 4.435-1.183 5.677-2.987l0.015-0.023h0.077v1.929h7.080v-29.795h-7.078zM22.84 18.003c0.448-1.892 1.937-3.13 3.795-3.13 2.048 0 3.461 1.199 3.832 3.13h-7.628zM47.995 25.901c-2.611 0-4.232-2.395-4.232-4.897 0-2.674 1.411-5.245 4.232-5.245 2.924 0 4.090 2.573 4.090 5.245 0 2.537-1.235 4.899-4.090 4.899z"></path>
</symbol>
<symbol id="icon-facebook-icon" viewBox="0 0 32 32">
<path d="M17.772 10.863v-3.951c0-1.090 0.886-1.974 1.977-1.974h1.977v-4.938h-3.953c-3.272 0-5.925 2.653-5.925 5.925v0 4.938h-3.948v4.938h3.951v15.798h5.922v-15.796h3.951l1.974-4.938h-5.925z"></path>
</symbol>
<symbol id="icon-buy-icon" viewBox="0 0 30 32">
<path stroke-width="2.2857" stroke-miterlimit="4" stroke-linecap="round" stroke-linejoin="round" d="M8.262 27.154c0.618 0.033 1.108 0.542 1.108 1.166s-0.489 1.133-1.105 1.166l-0.003 0c-0.644 0-1.166-0.522-1.166-1.166s0.522-1.166 1.166-1.166v0zM25.41 27.154c0.644 0.001 1.166 0.523 1.166 1.167s-0.523 1.167-1.167 1.167c-0.001 0-0.001 0-0.002 0h0c-0.644-0.001-1.166-0.523-1.166-1.167s0.523-1.167 1.167-1.167c0.001 0 0.001 0 0.002 0h-0z"></path>
<path stroke-width="2.2857" stroke-miterlimit="4" stroke-linecap="round" stroke-linejoin="round" d="M1.143 1.905l3.17 0.549 1.467 17.483c0.121 1.416 1.3 2.519 2.737 2.519 0.001 0 0.001 0 0.002 0h16.628c1.365 0 2.523-1.003 2.72-2.356l1.446-9.993c0.014-0.088 0.021-0.19 0.021-0.294 0-1.128-0.914-2.042-2.042-2.042-0.001 0-0.001 0-0.002 0h-22.468M18.476 13.402h4.226"></path>
</symbol>
<symbol id="icon-logo-room-icon" viewBox="0 0 25 32">
<path stroke-width="2.1818" stroke-miterlimit="4" stroke-linecap="round" stroke-linejoin="round" d="M19.428 9.132c0 3.838-3.112 6.95-6.95 6.95s-6.95-3.112-6.95-6.95c0-3.838 3.112-6.95 6.95-6.95s6.95 3.112 6.95 6.95z"></path>
<path stroke-width="2.1818" stroke-miterlimit="4" stroke-linecap="round" stroke-linejoin="round" d="M1.455 25.747c0-0.003-0-0.007-0-0.011 0-0.509 0.118-0.991 0.328-1.419l-0.008 0.019c0.665-1.331 2.543-2.036 4.1-2.356 0.974-0.22 2.14-0.39 3.329-0.475l0.079-0.005c0.956-0.089 2.066-0.14 3.189-0.14s2.234 0.051 3.33 0.15l-0.141-0.010c1.145 0.081 2.284 0.241 3.408 0.48 1.556 0.32 3.434 0.959 4.102 2.356 0.202 0.415 0.32 0.903 0.32 1.418s-0.118 1.003-0.329 1.438l0.009-0.020c-0.668 1.396-2.545 2.036-4.102 2.342-1.123 0.25-2.262 0.416-3.408 0.495-1.728 0.145-3.462 0.172-5.193 0.079-0.4 0-0.785 0-1.185-0.080-1.257-0.086-2.418-0.261-3.546-0.521l0.151 0.029c-1.571-0.305-3.434-0.945-4.113-2.343-0.202-0.416-0.32-0.905-0.32-1.421 0-0.002 0-0.004 0-0.006v0z"></path>
</symbol>
<symbol id="icon-arrow-right-icon" viewBox="0 0 21 32">
<path stroke-width="4" stroke-miterlimit="4" stroke-linecap="round" stroke-linejoin="round" d="M4.445 3.555l12.443 12.445-12.443 12.445"></path>
</symbol>
<symbol id="icon-arrow-left-icon" viewBox="0 0 32 32">
<path stroke-width="3" stroke-miterlimit="4" stroke-linecap="round" stroke-linejoin="round" d="M20.666 25.334l-9.332-9.334 9.332-9.334"></path>
</symbol>
<symbol id="icon-airbnb-logo-icon" viewBox="0 0 99 32">
<path d="M28.469 22.447c-0.157-0.375-0.302-0.772-0.458-1.11l-0.721-1.611-0.029-0.030c-3.004-6.599-5.295-11.185-7.691-15.708l0.836 1.73-0.097-0.193c-0.244-0.454-0.488-0.956-0.74-1.419-0.311-0.551-0.614-1.14-1.11-1.699-0.481-0.579-1.076-1.045-1.752-1.368l-0.031-0.013c-0.646-0.31-1.405-0.492-2.206-0.492-1.602 0-3.035 0.725-3.988 1.865l-0.007 0.008c-0.457 0.559-0.798 1.149-1.109 1.699-0.243 0.502-0.487 0.993-0.739 1.448l-0.098 0.193c-2.386 4.634-4.712 9.344-6.855 13.977l-0.058 0.058c-0.214 0.502-0.467 1.023-0.711 1.582-0.156 0.339-0.311 0.706-0.467 1.111-0.29 0.711-0.459 1.537-0.459 2.402 0 1.53 0.528 2.937 1.411 4.048l-0.010-0.013c0.704 0.889 1.614 1.584 2.66 2.019l0.044 0.016c1.065 0.433 2.225 0.585 3.366 0.438 1.159-0.155 2.205-0.53 3.133-1.082l-0.038 0.021c1.267-0.705 2.483-1.728 3.847-3.204 1.363 1.476 2.609 2.499 3.846 3.214 1.123 0.664 2.467 1.071 3.903 1.11l0.011 0c0.009 0 0.020 0 0.030 0 1.653 0 3.165-0.603 4.327-1.602l-0.009 0.007c1.173-1.007 1.982-2.409 2.219-3.997l0.004-0.036c0.093-0.385 0.146-0.828 0.146-1.283 0-0.755-0.147-1.475-0.414-2.134l0.014 0.038v0.009zM14.487 24.051c-1.675-2.124-2.765-4.074-3.135-5.745-0.093-0.359-0.146-0.771-0.146-1.196 0-0.245 0.018-0.486 0.052-0.722l-0.003 0.027c0.067-0.492 0.253-0.927 0.505-1.294 0.585-0.839 1.607-1.361 2.727-1.361 0.532-0.017 1.059 0.099 1.535 0.334 0.476 0.236 0.885 0.585 1.192 1.017 0.253 0.386 0.438 0.811 0.497 1.302 0.097 0.561 0.057 1.207-0.098 1.892-0.37 1.642-1.46 3.61-3.125 5.745zM26.891 25.479c-0.11 0.796-0.43 1.548-0.925 2.184-0.493 0.627-1.132 1.118-1.867 1.425l-0.031 0.011c-0.74 0.309-1.558 0.396-2.357 0.309-0.883-0.115-1.679-0.402-2.383-0.826l0.028 0.015c-1.358-0.84-2.523-1.832-3.519-2.974l-0.015-0.018c2.045-2.509 3.281-4.798 3.748-6.835 0.224-0.966 0.254-1.834 0.156-2.635-0.132-0.804-0.426-1.52-0.849-2.143l0.012 0.018c-0.494-0.691-1.135-1.246-1.88-1.627l-0.029-0.014c-0.688-0.353-1.5-0.56-2.362-0.56-0.036 0-0.071 0-0.107 0.001l0.005-0c-1.801 0-3.407 0.83-4.381 2.191-0.42 0.603-0.713 1.326-0.824 2.106l-0.003 0.027c-0.046 0.287-0.073 0.617-0.073 0.954 0 0.598 0.083 1.177 0.239 1.725l-0.011-0.044c0.468 2.037 1.732 4.354 3.748 6.854-0.997 1.185-2.164 2.186-3.472 2.977l-0.062 0.035c-0.808 0.463-1.578 0.705-2.356 0.801-0.177 0.024-0.382 0.038-0.59 0.038-1.063 0-2.042-0.355-2.826-0.954l0.011 0.008c-0.944-0.72-1.596-1.781-1.771-2.997l-0.003-0.025c-0.097-0.772-0.030-1.545 0.282-2.412 0.097-0.309 0.243-0.618 0.398-0.985 0.215-0.502 0.468-1.023 0.712-1.545l0.039-0.066c2.97-6.562 5.238-11.127 7.612-15.628l-0.826 1.717 0.097-0.193c0.243-0.463 0.487-0.956 0.739-1.419 0.254-0.492 0.526-0.966 0.877-1.352 0.601-0.702 1.488-1.144 2.478-1.144s1.877 0.442 2.474 1.14l0.004 0.004c0.341 0.386 0.623 0.86 0.876 1.352 0.243 0.463 0.487 0.966 0.739 1.419l0.098 0.193c1.364 2.415 3.641 6.98 5.828 11.595l0.987 2.315 0.030 0.029c0.254 0.502 0.467 1.063 0.711 1.545 0.156 0.376 0.311 0.676 0.408 0.994 0.185 0.87 0.282 1.641 0.185 2.413zM40.445 23.838c-0.022 0-0.047 0.001-0.073 0.001-0.745 0-1.451-0.165-2.083-0.461l0.030 0.013c-0.683-0.318-1.257-0.764-1.714-1.311l-0.006-0.008c-0.969-1.101-1.561-2.555-1.561-4.147 0-0.062 0.001-0.125 0.003-0.187l-0 0.009c-0-0.019-0-0.040-0-0.062 0-1.67 0.612-3.196 1.624-4.368l-0.007 0.009c0.485-0.561 1.080-1.012 1.753-1.322l0.032-0.013c0.628-0.291 1.364-0.46 2.139-0.46 0.017 0 0.034 0 0.051 0l-0.003-0c0.035-0.001 0.075-0.002 0.116-0.002 0.704 0 1.367 0.172 1.951 0.477l-0.023-0.011c0.638 0.333 1.163 0.803 1.55 1.375l0.009 0.015 0.097-1.516h2.844v11.661h-2.854l-0.097-1.699c-0.41 0.627-0.958 1.131-1.602 1.479l-0.023 0.011c-0.662 0.352-1.401 0.53-2.152 0.519zM41.184 21.057c0.565 0 1.062-0.154 1.528-0.434 0.434-0.32 0.787-0.723 1.042-1.188l0.009-0.019c0.243-0.492 0.371-1.081 0.371-1.737 0.005-0.065 0.007-0.14 0.007-0.216 0-0.524-0.123-1.019-0.341-1.458l0.009 0.019c-0.259-0.524-0.635-0.955-1.095-1.273l-0.011-0.007c-0.432-0.271-0.957-0.431-1.519-0.431s-1.087 0.161-1.531 0.438l0.012-0.007c-0.434 0.32-0.787 0.723-1.042 1.188l-0.009 0.019c-0.235 0.483-0.372 1.050-0.372 1.649 0 0.031 0 0.062 0.001 0.093l-0-0.005c-0.005 0.064-0.007 0.14-0.007 0.215 0 0.524 0.123 1.019 0.341 1.458l-0.009-0.019c0.259 0.524 0.635 0.955 1.095 1.273l0.011 0.007c0.458 0.28 0.954 0.435 1.51 0.435zM52.040 8.721c0 0.339-0.058 0.648-0.214 0.898-0.154 0.242-0.37 0.463-0.651 0.618-0.284 0.154-0.585 0.212-0.897 0.212-0.012 0-0.026 0-0.041 0-0.316 0-0.613-0.079-0.874-0.217l0.010 0.005c-0.269-0.15-0.489-0.359-0.648-0.611l-0.004-0.007c-0.136-0.243-0.216-0.533-0.216-0.841 0-0.020 0-0.040 0.001-0.060l-0 0.003c0-0.348 0.068-0.655 0.215-0.897 0.154-0.29 0.38-0.463 0.651-0.618 0.284-0.154 0.585-0.222 0.906-0.222 0.012-0 0.026-0 0.040-0 0.635 0 1.192 0.328 1.514 0.823l0.004 0.007c0.142 0.281 0.212 0.593 0.204 0.907zM48.729 23.49v-11.641h3.096v11.661h-3.105l0.009-0.020zM60.102 14.899v0.039c-0.146-0.067-0.341-0.096-0.486-0.126-0.195-0.038-0.352-0.038-0.536-0.038-0.866 0-1.519 0.25-1.948 0.772-0.468 0.53-0.682 1.273-0.682 2.229v5.725h-3.105v-11.661h2.852l0.097 1.767c0.312-0.618 0.682-1.081 1.207-1.429 0.465-0.304 1.034-0.484 1.646-0.484 0.041 0 0.082 0.001 0.122 0.002l-0.006-0c0.224 0 0.439 0.019 0.623 0.057 0.097 0.030 0.156 0.030 0.214 0.058v3.090zM61.348 23.49v-16.43h3.096v6.275c0.42-0.545 0.938-0.992 1.532-1.319l0.025-0.013c0.629-0.312 1.369-0.495 2.152-0.495 0.365 0 0.72 0.040 1.062 0.115l-0.033-0.006c1.107 0.241 2.050 0.829 2.733 1.643l0.006 0.008c0.969 1.101 1.561 2.555 1.561 4.147 0 0.066-0.001 0.131-0.003 0.197l0-0.010c0 0.018 0 0.040 0 0.061 0 1.67-0.612 3.196-1.624 4.368l0.007-0.009c-0.485 0.561-1.080 1.012-1.753 1.322l-0.032 0.013c-0.629 0.291-1.365 0.461-2.141 0.461-0.016 0-0.032-0-0.048-0l0.002 0c-0.034 0.001-0.073 0.002-0.113 0.002-0.705 0-1.369-0.173-1.953-0.478l0.023 0.011c-0.638-0.332-1.164-0.802-1.551-1.373l-0.009-0.015-0.097 1.515-2.842 0.030v-0.020zM67.336 21.058c0.555 0 1.052-0.154 1.519-0.435 0.434-0.32 0.787-0.723 1.042-1.188l0.009-0.019c0.253-0.492 0.37-1.081 0.37-1.737 0-0.647-0.117-1.236-0.371-1.728-0.264-0.484-0.617-0.887-1.041-1.2l-0.010-0.007c-0.432-0.271-0.957-0.431-1.519-0.431s-1.087 0.161-1.531 0.438l0.012-0.007c-0.438 0.309-0.779 0.715-1.062 1.207-0.234 0.482-0.371 1.048-0.371 1.647 0 0.032 0 0.064 0.001 0.096l-0-0.005c-0.005 0.065-0.007 0.141-0.007 0.218 0 0.523 0.122 1.017 0.34 1.456l-0.009-0.019c0.25 0.514 0.632 0.956 1.107 1.28 0.457 0.28 0.953 0.435 1.518 0.435zM74.648 23.5v-11.661h2.852l0.097 1.515c0.364-0.582 0.862-1.050 1.453-1.367l0.020-0.010c0.526-0.284 1.151-0.45 1.815-0.45 0.056 0 0.112 0.001 0.167 0.004l-0.008-0c0.021-0 0.045-0.001 0.069-0.001 0.797 0 1.54 0.232 2.165 0.633l-0.016-0.010c0.661 0.419 1.183 1.022 1.501 1.732 0.342 0.734 0.526 1.642 0.526 2.655v6.989h-3.106v-6.583c0-0.811-0.185-1.448-0.555-1.921-0.37-0.463-0.876-0.714-1.518-0.714-0.468 0-0.876 0.096-1.237 0.309-0.352 0.225-0.635 0.527-0.831 0.885l-0.006 0.013c-0.216 0.401-0.323 0.85-0.311 1.303v6.68h-3.076zM86.838 23.5v-16.449h3.105v6.274c0.422-0.563 0.969-1.021 1.599-1.337 0.592-0.304 1.292-0.483 2.033-0.487h0.001c0.022-0 0.047-0.001 0.073-0.001 0.744 0 1.45 0.165 2.083 0.461l-0.030-0.013c0.683 0.318 1.257 0.764 1.714 1.311l0.006 0.008c0.963 1.102 1.551 2.554 1.551 4.143 0 0.064-0.001 0.127-0.003 0.191l0-0.009c0 0.020 0 0.043 0 0.066 0 1.669-0.612 3.194-1.624 4.364l0.007-0.008c-0.485 0.561-1.080 1.012-1.753 1.322l-0.032 0.013c-0.628 0.291-1.364 0.46-2.139 0.46-0.017 0-0.034-0-0.051-0l0.003 0c-0.034 0.001-0.074 0.002-0.114 0.002-0.704 0-1.368-0.173-1.952-0.478l0.023 0.011c-0.638-0.332-1.163-0.802-1.551-1.373l-0.009-0.015-0.087 1.516-2.852 0.029zM92.855 21.058c0.564 0 1.060-0.154 1.518-0.435 0.438-0.309 0.779-0.714 1.062-1.207 0.243-0.492 0.37-1.081 0.37-1.737 0.005-0.065 0.007-0.142 0.007-0.218 0-0.523-0.122-1.017-0.34-1.456l0.009 0.019c-0.26-0.524-0.635-0.955-1.096-1.273l-0.011-0.007c-0.432-0.271-0.957-0.431-1.519-0.431s-1.087 0.161-1.531 0.438l0.012-0.007c-0.434 0.32-0.787 0.723-1.042 1.188l-0.009 0.019c-0.236 0.457-0.374 0.996-0.374 1.569 0 0.060 0.001 0.119 0.004 0.178l-0-0.008c-0.005 0.065-0.007 0.141-0.007 0.218 0 0.523 0.122 1.017 0.34 1.456l-0.009-0.019c0.252 0.514 0.632 0.956 1.107 1.28 0.458 0.28 0.925 0.435 1.51 0.435z"></path>
</symbol>
<symbol id="icon-search-icon" viewBox="0 0 32 32">
<path d="M31.008 27.231l-7.58-6.447c-0.784-0.705-1.622-1.029-2.299-0.998 1.789-2.096 2.87-4.815 2.87-7.787 0-6.627-5.373-12-12-12s-12 5.373-12 12 5.373 12 12 12c2.972 0 5.691-1.081 7.787-2.87-0.031 0.677 0.293 1.515 0.998 2.299l6.447 7.58c1.104 1.226 2.907 1.33 4.007 0.23s0.997-2.903-0.23-4.007zM12 20c-4.418 0-8-3.582-8-8s3.582-8 8-8 8 3.582 8 8-3.582 8-8 8z"></path>
</symbol>
<symbol id="icon-frame-icon" viewBox="0 0 32 32">
<path d="M21.563 14.667l-7.152-7.152 1.885-1.885 10.371 10.371-10.371 10.371-1.885-1.885 7.152-7.152h-16.229v-2.667h16.229z"></path>
</symbol>
</defs>
</svg>
